<svg xmlns="http://www.w3.org/2000/svg" width="32" height="32" viewBox="0 0 32 32">
    <g fill="none" fill-rule="evenodd">
        <path d="M32 0H0v32h32z"/>
        <path fill="#FFF" d="M23.6 10.533L16 3.067l-7.6 7.466c-4.133 4.134-4.133 10.934 0 15.067 2.133 2.133 4.8 3.067 7.6 3.067s5.467-1.067 7.6-3.067c4.133-4.133 4.133-10.933 0-15.067zm-2 13.2c-1.467 1.467-3.467 2.4-5.6 2.4-2.133 0-4.133-.8-5.6-2.4-1.6-1.466-2.4-3.466-2.4-5.6 0-2.133.8-4.133 2.4-5.6L16 6.8l5.6 5.733C23.067 14 24 16 24 18.133c0 2.134-.8 4.134-2.4 5.6z"/>
    </g>
</svg>
