<svg xmlns="http://www.w3.org/2000/svg" width="32" height="32" viewBox="0 0 32 32">
    <g fill="none" fill-rule="evenodd">
        <path fill="#FFF" d="M27.333 8c-3.48.933-7.56 1.333-11.333 1.333-3.773 0-7.853-.4-11.333-1.333L4 10.667c2.48.666 5.333 1.106 8 1.333v17.333h2.667v-8h2.666v8H20V12c2.667-.227 5.52-.667 8-1.333L27.333 8zM16 8c1.467 0 2.667-1.2 2.667-2.667 0-1.466-1.2-2.666-2.667-2.666a2.675 2.675 0 0 0-2.667 2.666C13.333 6.8 14.533 8 16 8z"/>
        <path d="M0 0h32v32H0z"/>
    </g>
</svg>
