<svg xmlns="http://www.w3.org/2000/svg" width="32" height="32" viewBox="0 0 32 32">
    <g fill="none" fill-rule="evenodd">
        <path d="M0 0h32v32H0z"/>
        <path fill="#FFF" d="M22.667 22.653c-1.8 0-2.934.56-3.934 1.067-.866.44-1.573.8-2.733.8-1.2 0-1.867-.333-2.733-.8-1-.507-2.094-1.067-3.934-1.067-1.84 0-2.933.56-3.933 1.067-.867.44-1.56.8-2.733.8v2.6c1.8 0 2.933-.56 3.933-1.067.867-.44 1.56-.8 2.733-.8 1.174 0 1.867.334 2.734.8 1 .507 2.093 1.067 3.933 1.067 1.84 0 2.933-.56 3.933-1.067.867-.44 1.574-.8 2.734-.8 1.2 0 1.866.334 2.733.8 1 .507 2.107 1.067 3.933 1.067v-2.6c-1.2 0-1.866-.333-2.733-.8-1-.507-2.133-1.067-3.933-1.067zm0-5.933c-1.8 0-2.934.573-3.934 1.067-.866.426-1.573.8-2.733.8-1.2 0-1.867-.334-2.733-.8-1-.507-2.094-1.067-3.934-1.067-1.84 0-2.933.573-3.933 1.067-.867.426-1.56.8-2.733.8v2.6c1.8 0 2.933-.574 3.933-1.067.867-.467 1.533-.8 2.733-.8 1.2 0 1.867.333 2.734.8 1 .507 2.093 1.067 3.933 1.067 1.84 0 2.933-.574 3.933-1.067.867-.467 1.534-.8 2.734-.8s1.866.333 2.733.8c1 .507 2.107 1.067 3.933 1.067v-2.6c-1.2 0-1.866-.334-2.733-.8-1-.507-2.133-1.067-3.933-1.067zM26.6 5.947c-1-.507-2.107-1.067-3.933-1.067-1.827 0-2.934.56-3.934 1.067-.866.426-1.573.8-2.733.8-1.2 0-1.867-.334-2.733-.8-1-.494-2.094-1.067-3.934-1.067-1.84 0-2.933.56-3.933 1.067-.867.44-1.56.8-2.733.8V9.32c1.8 0 2.933-.573 3.933-1.067.867-.44 1.56-.8 2.733-.8 1.174 0 1.867.334 2.734.8 1 .507 2.093 1.067 3.933 1.067 1.84 0 2.933-.573 3.933-1.067.867-.426 1.574-.8 2.734-.8 1.2 0 1.866.334 2.733.8 1 .507 2.107 1.067 3.933 1.067v-2.6c-1.2 0-1.866-.333-2.733-.773zm-3.933 4.84c-1.8 0-2.934.573-3.934 1.066-.866.467-1.533.8-2.733.8-1.2 0-1.867-.333-2.733-.8-1-.506-2.094-1.066-3.934-1.066-1.84 0-2.933.573-3.933 1.066-.867.467-1.533.8-2.733.8v2.6c1.8 0 2.933-.573 3.933-1.066.867-.427 1.573-.8 2.733-.8 1.16 0 1.867.333 2.734.8 1 .506 2.093 1.066 3.933 1.066 1.84 0 2.933-.573 3.933-1.066.867-.427 1.574-.8 2.734-.8 1.2 0 1.866.333 2.733.8 1 .506 2.107 1.066 3.933 1.066v-2.6c-1.2 0-1.866-.333-2.733-.8-1-.506-2.133-1.066-3.933-1.066z"/>
    </g>
</svg>
