<svg width="623" height="152" viewBox="0 0 623 152" fill="none" xmlns="http://www.w3.org/2000/svg">
<path d="M522.881 152C519.532 151.99 516.256 151.026 513.437 149.222C510.618 147.418 508.372 144.847 506.964 141.813C505.556 138.779 505.044 135.406 505.487 132.091C505.931 128.776 507.312 125.657 509.468 123.098C510.945 121.317 512.759 119.844 514.807 118.764C516.855 117.684 519.096 117.018 521.402 116.804C523.713 116.582 526.045 116.818 528.263 117.499C530.482 118.18 532.544 119.293 534.331 120.774C536.118 122.254 537.593 124.073 538.673 126.125C539.753 128.178 540.416 130.423 540.623 132.732C540.846 135.043 540.608 137.374 539.924 139.593C539.24 141.811 538.123 143.872 536.637 145.657C535.151 147.442 533.326 148.915 531.267 149.992C529.208 151.068 526.956 151.727 524.641 151.93L522.881 152Z" fill="#2EB494"/>
<path d="M564.104 122.957C561.793 123.064 559.483 122.714 557.307 121.929C555.13 121.143 553.13 119.937 551.421 118.38C547.968 115.235 545.907 110.848 545.693 106.186C545.478 101.523 547.126 96.9662 550.276 93.5176C553.425 90.0689 557.817 88.011 562.485 87.7965C565.972 87.4472 569.484 88.1455 572.572 89.802C575.659 91.4586 578.181 93.998 579.815 97.0949C581.448 100.192 582.119 103.705 581.741 107.185C581.363 110.665 579.953 113.953 577.693 116.628C576.212 118.414 574.392 119.889 572.338 120.969C570.284 122.05 568.036 122.713 565.724 122.922C565.185 122.969 564.644 122.981 564.104 122.957Z" fill="#2EB494"/>
<path d="M523.338 35.266C521.221 35.2747 519.121 34.8932 517.143 34.1409C514.451 33.1079 512.055 31.4305 510.165 29.2561C508.275 27.0817 506.949 24.4769 506.303 21.6706C505.657 18.8643 505.711 15.9425 506.46 13.1619C507.209 10.3813 508.631 7.82709 510.6 5.72375C512.569 3.62041 515.025 2.03235 517.752 1.09914C520.48 0.165917 523.395 -0.0838828 526.242 0.371694C529.089 0.82727 531.78 1.97427 534.079 3.71189C536.378 5.44951 538.214 7.72454 539.426 10.337C540.664 13.0231 541.203 15.9775 540.994 18.9268C540.785 21.8762 539.835 24.7253 538.231 27.2105C536.627 29.6958 534.422 31.7368 531.819 33.1449C529.215 34.5529 526.299 35.2825 523.338 35.266Z" fill="#2EB494"/>
<path d="M564.351 64.59C561.798 64.5473 559.286 63.9506 556.988 62.8415C554.69 61.7323 552.661 60.1372 551.041 58.1668C549.422 56.1963 548.25 53.8976 547.609 51.4301C546.968 48.9625 546.871 46.3852 547.326 43.8767C547.782 41.3682 548.778 38.9886 550.245 36.9029C551.713 34.8172 553.617 33.0753 555.826 31.7979C558.035 30.5205 560.496 29.7382 563.038 29.5053C565.58 29.2724 568.142 29.5944 570.546 30.449C573.834 31.6559 576.685 33.8147 578.737 36.6493C580.789 39.484 581.948 42.8655 582.065 46.3615C582.182 49.8574 581.253 53.3088 579.395 56.2742C577.538 59.2395 574.837 61.584 571.638 63.0078C569.354 64.0607 566.866 64.6008 564.351 64.59Z" fill="#2EB494"/>
<path d="M605.363 93.9495C601.019 93.9522 596.828 92.3506 593.595 89.4529C590.363 86.5552 588.317 82.5659 587.852 78.2525C587.386 73.9391 588.534 69.6062 591.075 66.0872C593.615 62.5682 597.369 60.1116 601.613 59.19C605.858 58.2684 610.293 58.9469 614.067 61.0949C617.841 63.2429 620.687 66.7088 622.056 70.8259C623.426 74.9429 623.223 79.4204 621.487 83.397C619.75 87.3736 616.603 90.5686 612.65 92.3673C610.358 93.3963 607.876 93.9353 605.363 93.9495Z" fill="#2EB494"/>
<path d="M27.1773 106.15C22.3416 106.247 17.541 105.312 13.0958 103.408C9.28696 101.735 6.07228 98.9534 3.87242 95.4262C1.58049 91.4333 0.367352 86.9138 0.352051 82.3112C0.352051 79.9203 0.352051 77.3536 0.352051 74.5759C0.352051 71.7982 0.352051 69.1963 0.352051 66.6647C0.391611 62.1099 1.60393 57.6419 3.87242 53.6904C6.09997 50.1612 9.30359 47.3523 13.0958 45.6034C17.5387 43.6921 22.3409 42.7568 27.1773 42.8608C30.7486 42.8346 34.3051 43.3201 37.7384 44.3024C40.8483 45.1682 43.772 46.5984 46.3633 48.5217C48.8052 50.3081 50.7937 52.6413 52.1693 55.3342C53.5449 58.0271 54.2692 61.0046 54.2841 64.0276C54.3122 64.2733 54.2823 64.5221 54.1967 64.7542C54.1111 64.9862 53.9722 65.195 53.7913 65.3637C53.4189 65.7099 52.927 65.8989 52.4183 65.8912H40.5547C39.9289 65.9327 39.3077 65.7589 38.7945 65.3989C38.2694 64.9213 37.9013 64.2962 37.7384 63.6057C37.2564 61.0435 35.823 58.7578 33.7252 57.2064C31.7143 56.1344 29.4552 55.6128 27.1773 55.6945C25.7906 55.6164 24.402 55.8121 23.0912 56.2707C21.7803 56.7292 20.5729 57.4415 19.5381 58.3668C17.4895 60.8104 16.4453 63.9392 16.6162 67.1218C16.4284 71.8099 16.4284 76.7324 16.6162 81.8893C16.3828 85.1441 17.4312 88.3613 19.5381 90.8553C20.5702 91.7868 21.7763 92.5055 23.0873 92.9701C24.3982 93.4348 25.7882 93.6361 27.1773 93.5627C29.6452 93.6706 32.0913 93.0598 34.218 91.8046C36.3061 90.2812 37.7298 88.0161 38.196 85.4757C38.3328 84.781 38.6764 84.1438 39.1818 83.6473C39.7304 83.3107 40.3696 83.1511 41.0123 83.1902H52.876C53.3846 83.1825 53.8766 83.3715 54.2489 83.7177C54.4294 83.8793 54.5683 84.0818 54.654 84.3082C54.7398 84.5346 54.7699 84.7782 54.7418 85.0186C54.716 88.0905 53.9684 91.1134 52.5592 93.844C51.186 96.4818 49.2224 98.7678 46.821 100.525C44.2297 102.448 41.3059 103.878 38.196 104.744C34.6138 105.759 30.8999 106.233 27.1773 106.15Z" fill="#2EB494"/>
<path d="M84.6297 106.15C80.3506 106.274 76.0964 105.457 72.1676 103.759C68.9504 102.327 66.2482 99.9469 64.4228 96.9382C62.548 93.7295 61.5072 90.1033 61.3953 86.3899C61.3953 85.2179 61.3953 83.8818 61.3953 82.3816C61.3953 80.8814 61.3953 79.5805 61.3953 78.4788C61.4977 74.7445 62.5911 71.1044 64.5636 67.9305C66.4731 64.9487 69.2142 62.5898 72.4492 61.1445C76.2857 59.4714 80.4453 58.6669 84.6297 58.7887C88.8483 58.6675 93.0421 59.4717 96.9158 61.1445C100.069 62.5946 102.743 64.9119 104.625 67.825C106.598 70.9989 107.691 74.639 107.794 78.3732C107.794 79.4984 107.794 80.7993 107.794 82.2761C107.794 83.7528 107.794 85.089 107.794 86.2844C107.682 89.9978 106.641 93.624 104.766 96.8327C102.941 99.8414 100.239 102.221 97.0214 103.654C93.1203 105.372 88.8925 106.223 84.6297 106.15ZM84.6297 95.602C85.7131 95.6912 86.8022 95.5208 87.8063 95.1049C88.8105 94.689 89.7008 94.0398 90.4031 93.2111C91.7492 91.1131 92.4584 88.6707 92.4449 86.1789C92.4449 85.2999 92.4449 84.1045 92.4449 82.6629C92.4449 81.2213 92.4449 80.0258 92.4449 79.1468C92.4465 76.6567 91.7383 74.2175 90.4031 72.1146C89.6478 71.3587 88.7506 70.7591 87.763 70.3499C86.7753 69.9408 85.7165 69.7301 84.6473 69.7301C83.5781 69.7301 82.5193 69.9408 81.5317 70.3499C80.544 70.7591 79.6469 71.3587 78.8915 72.1146C77.5227 74.2006 76.8227 76.6535 76.8849 79.1468C76.8849 80.0258 76.8849 81.1861 76.8849 82.6629C76.8849 84.1396 76.8849 85.2999 76.8849 86.1789C76.8114 88.6736 77.5123 91.13 78.8915 93.2111C79.6061 94.0051 80.4981 94.6196 81.4952 95.0045C82.4923 95.3894 83.5662 95.5339 84.6297 95.4262V95.602Z" fill="#2EB494"/>
<path d="M118.003 105.271C117.711 105.281 117.419 105.231 117.147 105.123C116.876 105.014 116.629 104.851 116.424 104.643C116.219 104.434 116.059 104.186 115.955 103.913C115.851 103.64 115.805 103.348 115.82 103.056V45.1464C115.799 44.8548 115.841 44.562 115.944 44.288C116.046 44.0141 116.206 43.7653 116.413 43.5585C116.62 43.3518 116.869 43.1919 117.143 43.0897C117.418 42.9876 117.711 42.9455 118.003 42.9664H128.564C128.856 42.9517 129.148 42.9976 129.422 43.1015C129.695 43.2054 129.944 43.3648 130.152 43.5698C130.361 43.7747 130.525 44.0207 130.633 44.2921C130.741 44.5635 130.792 44.8544 130.782 45.1464V103.162C130.787 103.454 130.732 103.744 130.623 104.015C130.513 104.286 130.35 104.532 130.143 104.739C129.936 104.945 129.69 105.108 129.418 105.218C129.147 105.328 128.857 105.382 128.564 105.377L118.003 105.271Z" fill="#2EB494"/>
<path d="M142.012 105.271C141.719 105.276 141.429 105.222 141.157 105.112C140.886 105.003 140.64 104.84 140.433 104.633C140.226 104.426 140.063 104.18 139.953 103.909C139.843 103.639 139.789 103.348 139.794 103.056V45.1464C139.784 44.8544 139.834 44.5635 139.943 44.2921C140.051 44.0207 140.215 43.7747 140.423 43.5698C140.632 43.3648 140.881 43.2054 141.154 43.1015C141.427 42.9976 141.72 42.9517 142.012 42.9664H152.397C152.689 42.9455 152.982 42.9876 153.256 43.0897C153.53 43.1919 153.78 43.3518 153.987 43.5585C154.194 43.7653 154.354 44.0141 154.456 44.288C154.558 44.562 154.6 44.8548 154.579 45.1464V103.162C154.594 103.453 154.548 103.745 154.444 104.018C154.34 104.291 154.181 104.54 153.975 104.748C153.77 104.956 153.524 105.12 153.252 105.228C152.98 105.336 152.689 105.387 152.397 105.377L142.012 105.271Z" fill="#2EB494"/>
<path d="M162.641 105.271C162.401 105.262 162.164 105.204 161.947 105.101C161.729 104.999 161.534 104.853 161.374 104.674C161.196 104.515 161.053 104.319 160.956 104.101C160.859 103.883 160.809 103.647 160.811 103.408C160.79 103.15 160.79 102.892 160.811 102.634L181.51 46.3772C181.696 45.7078 182.076 45.1083 182.602 44.6543C183.273 44.1315 184.111 43.8692 184.96 43.9159H197.95C198.8 43.8692 199.638 44.1315 200.309 44.6543C200.835 45.1083 201.215 45.7078 201.4 46.3772L221.995 102.634C222.051 102.889 222.051 103.153 221.995 103.408C221.996 103.647 221.946 103.883 221.849 104.101C221.752 104.319 221.61 104.515 221.431 104.674C221.255 104.861 221.042 105.011 220.806 105.113C220.57 105.216 220.316 105.27 220.058 105.271H209.216C208.497 105.312 207.79 105.073 207.244 104.603C206.894 104.258 206.609 103.853 206.399 103.408L203.196 94.3716H179.715L176.195 103.338C176.029 103.789 175.764 104.197 175.42 104.533C174.831 105.024 174.072 105.264 173.308 105.201L162.641 105.271ZM183.341 81.784H199.675L191.403 58.578L183.341 81.784Z" fill="#2EB494"/>
<path d="M248.609 106.151C244.629 106.225 240.684 105.408 237.062 103.76C233.792 102.222 231.032 99.7817 229.106 96.7275C227.066 93.4653 225.959 89.7084 225.902 85.8628C225.902 84.9487 225.902 83.7532 225.902 82.3468C225.902 80.9403 225.902 79.7097 225.902 78.8307C225.955 74.9565 227.05 71.1677 229.071 67.8605C230.989 64.7999 233.752 62.3579 237.027 60.8284C240.665 59.1951 244.621 58.3904 248.609 58.4726C252.145 58.3869 255.667 58.9592 258.994 60.1603C261.585 61.1453 263.972 62.5996 266.034 64.4499C267.674 65.9795 269.042 67.7745 270.083 69.7592C270.9 71.2067 271.393 72.8143 271.526 74.4707C271.559 74.7577 271.521 75.0482 271.417 75.3175C271.313 75.5869 271.145 75.8271 270.928 76.0178C270.499 76.426 269.936 76.6636 269.344 76.6859H258.149C257.618 76.7068 257.096 76.5454 256.67 76.2288C256.265 75.8587 255.931 75.4178 255.685 74.9278C255.204 73.3986 254.271 72.0504 253.009 71.0602C251.77 70.2417 250.304 69.8356 248.82 69.8999C247.802 69.8454 246.785 70.0229 245.846 70.4188C244.906 70.8147 244.07 71.4188 243.398 72.1853C241.987 74.2532 241.272 76.7163 241.357 79.2175C241.357 81.5732 241.357 83.6477 241.357 85.4761C241.254 87.9794 241.971 90.4479 243.398 92.5082C244.093 93.2381 244.937 93.8105 245.872 94.1866C246.807 94.5627 247.813 94.7337 248.82 94.6882C250.345 94.7665 251.857 94.3737 253.15 93.563C254.361 92.5546 255.244 91.2079 255.685 89.6954C255.931 89.1952 256.265 88.7429 256.67 88.3593C257.101 88.0551 257.622 87.9063 258.149 87.9373H269.344C269.932 87.9468 270.495 88.1721 270.928 88.5702C271.143 88.7627 271.309 89.0032 271.413 89.2721C271.517 89.5409 271.556 89.8306 271.526 90.1173C271.435 91.3307 271.137 92.5197 270.646 93.6334C270.013 95.1305 269.185 96.5375 268.182 97.8175C266.944 99.3919 265.472 100.767 263.817 101.896C261.853 103.256 259.676 104.278 257.374 104.92C254.529 105.759 251.575 106.174 248.609 106.151Z" fill="#2EB494"/>
<path d="M302.893 105.271C299.561 105.359 296.248 104.735 293.176 103.443C290.511 102.315 288.295 100.337 286.875 97.8173C285.306 94.7672 284.554 91.3634 284.692 87.9371V71.0599H277.652C277.045 71.0708 276.456 70.858 275.997 70.4622C275.789 70.2557 275.625 70.0087 275.516 69.7366C275.407 69.4645 275.355 69.1729 275.363 68.8799V61.8478C275.355 61.5548 275.407 61.2632 275.516 60.9911C275.625 60.719 275.789 60.472 275.997 60.2656C276.456 59.8697 277.045 59.6569 277.652 59.6678H284.692V45.1464C284.684 44.8534 284.736 44.5619 284.845 44.2897C284.954 44.0176 285.118 43.7707 285.326 43.5642C285.753 43.184 286.303 42.9716 286.875 42.9664H297.084C297.376 42.9517 297.668 42.9976 297.942 43.1015C298.215 43.2054 298.464 43.3648 298.672 43.5698C298.881 43.7747 299.045 44.0207 299.153 44.2921C299.261 44.5635 299.312 44.8544 299.302 45.1464V59.5623H310.285C310.578 59.5475 310.87 59.5935 311.143 59.6974C311.417 59.8012 311.665 59.9607 311.874 60.1656C312.082 60.3706 312.246 60.6166 312.354 60.888C312.463 61.1594 312.513 61.4503 312.503 61.7423V68.7745C312.513 69.0665 312.463 69.3574 312.354 69.6288C312.246 69.9002 312.082 70.1462 311.874 70.3511C311.665 70.556 311.417 70.7155 311.143 70.8194C310.87 70.9232 310.578 70.9692 310.285 70.9544H299.302V86.601C299.203 88.2593 299.595 89.9099 300.428 91.3477C300.868 91.9487 301.455 92.4264 302.134 92.7344C302.812 93.0423 303.558 93.1702 304.301 93.1057H311.095C311.387 93.0956 311.679 93.1462 311.95 93.2544C312.222 93.3627 312.469 93.5261 312.674 93.7343C312.879 93.9426 313.039 94.1911 313.142 94.4642C313.246 94.7373 313.293 95.029 313.278 95.3208V102.951C313.293 103.243 313.246 103.534 313.142 103.807C313.039 104.08 312.879 104.329 312.674 104.537C312.469 104.745 312.222 104.909 311.95 105.017C311.679 105.125 311.387 105.176 311.095 105.166L302.893 105.271Z" fill="#2EB494"/>
<path d="M322.642 52.9519C322.35 52.9729 322.057 52.9308 321.783 52.8286C321.508 52.7265 321.259 52.5666 321.052 52.3598C320.845 52.1531 320.685 51.9043 320.583 51.6303C320.48 51.3563 320.438 51.0636 320.459 50.772V42.9311C320.447 42.3358 320.661 41.7579 321.058 41.3137C321.257 41.094 321.502 40.9204 321.776 40.805C322.05 40.6896 322.345 40.6353 322.642 40.6457H333.203C333.504 40.6393 333.804 40.6953 334.083 40.8103C334.361 40.9253 334.613 41.0967 334.822 41.3137C335.036 41.525 335.206 41.777 335.321 42.0548C335.436 42.3326 335.494 42.6306 335.491 42.9311V50.772C335.493 51.0672 335.434 51.3597 335.319 51.6316C335.204 51.9036 335.035 52.1495 334.822 52.3542C334.374 52.7448 333.798 52.9575 333.203 52.9519H322.642ZM322.642 105.271C322.349 105.276 322.059 105.222 321.788 105.112C321.516 105.003 321.27 104.84 321.063 104.633C320.856 104.426 320.693 104.18 320.583 103.909C320.473 103.638 320.419 103.348 320.424 103.056V61.7421C320.414 61.4501 320.465 61.1592 320.573 60.8878C320.681 60.6164 320.845 60.3704 321.053 60.1655C321.262 59.9605 321.511 59.8011 321.784 59.6972C322.058 59.5934 322.35 59.5474 322.642 59.5621H333.027C333.589 59.5626 334.13 59.7762 334.541 60.1599C334.761 60.3592 334.935 60.604 335.05 60.8772C335.166 61.1505 335.22 61.4457 335.21 61.7421V103.056C335.228 103.353 335.177 103.651 335.061 103.925C334.945 104.2 334.767 104.444 334.541 104.638C334.343 104.839 334.108 104.999 333.848 105.108C333.588 105.216 333.309 105.272 333.027 105.271H322.642Z" fill="#2EB494"/>
<path d="M366.4 106.15C362.121 106.274 357.867 105.457 353.938 103.759C350.721 102.327 348.019 99.947 346.193 96.9382C344.319 93.7296 343.278 90.1033 343.166 86.39C343.166 85.218 343.166 83.8819 343.166 82.3817C343.166 80.8815 343.166 79.5806 343.166 78.4788C343.268 74.7446 344.362 71.1045 346.334 67.9306C348.239 64.958 350.966 62.6008 354.185 61.1446C362.089 57.9577 370.923 57.9577 378.827 61.1446C382.062 62.5899 384.803 64.9488 386.713 67.9306C388.654 71.1186 389.745 74.7501 389.881 78.4788C389.881 79.604 389.881 80.9049 389.881 82.3817C389.881 83.8584 389.881 85.1945 389.881 86.39C389.753 90.1008 388.713 93.7233 386.854 96.9382C385.028 99.947 382.326 102.327 379.109 103.759C375.102 105.486 370.761 106.303 366.4 106.15ZM366.4 95.6021C367.479 95.6943 368.564 95.5251 369.563 95.1089C370.562 94.6926 371.445 94.0416 372.138 93.2112C373.512 91.124 374.235 88.6767 374.215 86.179C374.215 85.3 374.215 84.1045 374.215 82.663C374.215 81.2214 374.215 80.0259 374.215 79.1469C374.225 76.6507 373.503 74.2063 372.138 72.1147C371.445 71.2843 370.562 70.6333 369.563 70.217C368.564 69.8008 367.479 69.6316 366.4 69.7238C365.322 69.6375 364.239 69.8094 363.241 70.2252C362.243 70.6411 361.359 71.2889 360.662 72.1147C359.293 74.2006 358.593 76.6536 358.655 79.1469C358.655 80.0259 358.655 81.1862 358.655 82.663C358.655 84.1397 358.655 85.3 358.655 86.179C358.582 88.6737 359.283 91.13 360.662 93.2112C361.377 94.0052 362.269 94.6197 363.266 95.0046C364.263 95.3895 365.337 95.534 366.4 95.4263V95.6021Z" fill="#2EB494"/>
<path d="M399.809 105.271C399.516 105.281 399.225 105.231 398.953 105.122C398.681 105.014 398.435 104.851 398.23 104.643C398.025 104.434 397.865 104.186 397.761 103.913C397.657 103.64 397.611 103.348 397.626 103.056V61.7421C397.605 61.4505 397.647 61.1577 397.749 60.8838C397.852 60.6098 398.012 60.361 398.219 60.1542C398.426 59.9475 398.675 59.7876 398.949 59.6854C399.223 59.5833 399.517 59.5412 399.809 59.5621H409.947C410.533 59.5481 411.101 59.7625 411.531 60.1599C411.735 60.3681 411.893 60.6162 411.996 60.8885C412.099 61.1608 412.145 61.4514 412.13 61.7421V65.2582C413.799 63.3511 415.834 61.7969 418.114 60.6873C420.842 59.4062 423.832 58.7801 426.845 58.8589C430.002 58.7825 433.119 59.5731 435.857 61.1444C438.532 62.7232 440.676 65.0609 442.018 67.8601C443.62 71.2521 444.392 74.9761 444.271 78.7248V103.337C444.289 103.635 444.238 103.932 444.122 104.207C444.006 104.481 443.828 104.725 443.602 104.92C443.401 105.125 443.159 105.287 442.893 105.396C442.627 105.505 442.341 105.558 442.053 105.552H430.964C430.682 105.553 430.403 105.498 430.143 105.389C429.883 105.28 429.647 105.121 429.45 104.92C429.224 104.725 429.046 104.481 428.93 104.207C428.814 103.932 428.763 103.635 428.781 103.337V79.0764C428.924 76.775 428.223 74.5003 426.81 72.6771C426.049 71.9051 425.129 71.3073 424.114 70.9248C423.099 70.5424 422.013 70.3845 420.931 70.462C419.872 70.4094 418.815 70.5794 417.826 70.961C416.838 71.3426 415.94 71.9273 415.193 72.6771C413.647 74.4383 412.862 76.739 413.01 79.0764V103.056C413.025 103.35 412.976 103.643 412.866 103.916C412.757 104.19 412.59 104.436 412.376 104.638C412.172 104.84 411.931 105 411.665 105.109C411.399 105.217 411.114 105.273 410.827 105.271H399.809Z" fill="#2EB494"/>
</svg>
