<?xml version="1.0" standalone="no"?>
<!DOCTYPE svg PUBLIC "-//W3C//DTD SVG 20010904//EN"
 "http://www.w3.org/TR/2001/REC-SVG-20010904/DTD/svg10.dtd">
<svg version="1.0" xmlns="http://www.w3.org/2000/svg"
 width="300.000000pt" height="300.000000pt" viewBox="0 0 300.000000 300.000000"
 preserveAspectRatio="xMidYMid meet">
<metadata>
Created by potrace 1.11, written by Peter Selinger 2001-2013
</metadata>
<g transform="translate(0.000000,300.000000) scale(0.100000,-0.100000)"
fill="#000000" stroke="none">
<path d="M761 2870 c-110 -47 -146 -77 -192 -163 -31 -57 -34 -70 -34 -147 0
-99 22 -155 86 -220 122 -123 329 -126 451 -7 91 90 120 244 67 357 -55 115
-154 180 -283 187 -39 1 -82 -2 -95 -7z"/>
<path d="M1455 2339 c-104 -13 -203 -88 -249 -188 -33 -71 -30 -199 6 -267 74
-140 240 -207 395 -158 168 53 255 262 179 429 -32 71 -66 107 -135 143 -70
38 -128 50 -196 41z"/>
<path d="M2050 1796 c-229 -61 -305 -371 -130 -530 208 -188 525 -62 535 212
8 221 -190 376 -405 318z"/>
<path d="M1399 1277 c-170 -64 -257 -224 -213 -393 46 -179 233 -279 409 -220
113 38 181 117 210 241 25 108 -4 205 -84 285 -31 31 -74 64 -96 75 -51 24
-176 30 -226 12z"/>
<path d="M773 759 c-143 -27 -243 -160 -243 -322 0 -91 30 -158 100 -227 66
-65 132 -90 223 -85 124 7 219 67 277 177 29 55 34 72 34 138 1 86 -27 158
-84 224 -68 77 -195 116 -307 95z"/>
</g>
</svg>
